<svg width="256" height="256" viewBox="0 0 256 256" fill="none" xmlns="http://www.w3.org/2000/svg">
    <rect width="256" height="256" fill="black"/>
    <path d="M112.641 140.814L60.8862 199.161L186.284 134.143L141.157 114.651L191.741 56.1648L69.8084 123.628L112.641 140.814Z"
          fill="white"/>
    <path fill-rule="evenodd" clip-rule="evenodd"
          d="M163.005 55.4158H92.995C72.2302 55.4158 55.397 72.2727 55.397 93.0666V163.608C55.397 184.402 72.2302 201.259 92.995 201.259H163.005C183.77 201.259 200.603 184.402 200.603 163.608V93.0666C200.603 72.2727 183.77 55.4158 163.005 55.4158ZM92.995 42C64.8312 42 42 64.8633 42 93.0666V163.608C42 191.811 64.8312 214.675 92.995 214.675H163.005C191.169 214.675 214 191.811 214 163.608V93.0666C214 64.8633 191.169 42 163.005 42H92.995Z"
          fill="white"/>
</svg>
